<svg width="184" height="19" viewBox="0 0 184 19" fill="none" xmlns="http://www.w3.org/2000/svg">
<path d="M10.616 18H11.696L18.536 6.288V18H21.488V1.2H18.536L11.168 13.872L3.776 1.2H0.584L10.616 18ZM0.848 18H3.776V9.96H0.848V18ZM24.1927 18H27.2887L28.5847 15.264H39.6727L41.0647 18H44.1847L35.6407 0.959999H32.4007L38.4007 12.744H29.7607L31.5127 9.048H28.6087L24.1927 18ZM54.6787 12.168L49.0387 1.2H45.9427L51.5107 12.168H54.6787ZM65.9347 1.2H62.8147L54.1507 18.24H57.3907L65.9347 1.2ZM67.7407 1.2L70.2847 5.016H72.9727L70.6447 1.2H67.7407ZM68.6527 7.272V18H71.5807V7.344L68.6527 7.272ZM88.9181 18H92.5421L84.8621 8.952L91.0061 1.2H87.1421L82.9181 6.672L78.2861 1.2H74.5421L88.9181 18ZM75.2621 18H78.1901V9.696H75.2621V18ZM100.973 1.2L106.301 12H109.181L105.101 3.72H110.165C113.909 3.72 115.781 6.648 115.781 9.6C115.781 12.528 113.909 15.456 110.165 15.456H100.973V18H110.285C115.997 17.928 118.853 13.776 118.853 9.6C118.853 5.424 115.997 1.248 110.285 1.2H100.973ZM124.419 6.288H127.347L126.147 3.72H136.875V1.2H122.043L124.419 6.288ZM122.643 8.328V10.848H135.915V8.328H122.643ZM122.043 15.48V18H137.019V15.48H122.043ZM155.715 3.192C153.939 1.704 150.699 0.767999 147.651 0.767999C143.835 0.767999 140.307 2.232 140.307 5.904C140.307 12.552 152.715 9.504 152.715 13.44C152.715 15.12 150.603 15.84 148.155 15.84C145.515 15.84 142.491 15 141.195 13.632L139.539 15.912C141.243 17.568 144.675 18.528 147.939 18.528C151.995 18.528 155.859 17.016 155.859 13.416C155.859 6.672 143.427 9.672 143.427 5.952C143.427 4.2 145.419 3.456 147.723 3.456C149.067 3.456 150.507 3.696 151.755 4.128L149.115 6.768H152.499L155.715 3.192ZM158.163 1.2L160.707 5.016H163.395L161.067 1.2H158.163ZM159.075 7.272V18H162.003V7.344L159.075 7.272ZM180.396 14.016L168.828 1.2H165.084L180.396 18H183.324V1.2H180.396V14.016ZM165.684 18H168.612V8.544H165.684V18Z" fill="white"/>
</svg>
