<svg width="32" height="32" viewBox="0 0 32 32" fill="none" xmlns="http://www.w3.org/2000/svg">
<path d="M16.0034 31.8217C11.6984 31.8217 11.1909 31.7989 9.51092 31.7254C8.20084 31.6823 6.90766 31.4161 5.68714 30.9379C3.57546 30.1162 1.90566 28.4457 1.08466 26.3336C0.62495 25.1087 0.376992 23.8145 0.351414 22.5064C0.253418 20.83 0.253418 20.2804 0.253418 16.0087C0.253418 11.6914 0.276161 11.1874 0.351414 9.5162C0.377559 8.20979 0.625506 6.91745 1.08466 5.6942C1.90477 3.57935 3.57728 1.90747 5.69239 1.08817C6.91501 0.626524 8.20777 0.377916 9.51439 0.353167C11.1857 0.258667 11.7351 0.258667 16.0034 0.258667C20.3435 0.258667 20.8422 0.281421 22.496 0.353167C23.8059 0.378136 25.1021 0.626713 26.3285 1.08817C28.443 1.9084 30.1152 3.57995 30.9362 5.6942C31.4036 6.9353 31.6529 8.24791 31.673 9.57395C31.7709 11.2504 31.7709 11.7982 31.7709 16.0682C31.7709 20.3381 31.7465 20.8982 31.673 22.5554C31.6468 23.8648 31.3983 25.1602 30.938 26.3861C30.1149 28.4997 28.4425 30.1706 26.3285 30.9922C25.1038 31.451 23.8104 31.6989 22.5029 31.7254C20.8317 31.8217 20.2839 31.8217 16.0034 31.8217ZM15.944 3.02891C11.6634 3.02891 11.219 3.04991 9.54767 3.12517C8.55017 3.13839 7.56223 3.32246 6.62689 3.66941C5.24573 4.19793 4.15281 5.2864 3.61867 6.66545C3.26904 7.61098 3.08493 8.60963 3.07441 9.61763C2.98167 11.3134 2.98166 11.758 2.98166 16.0087C2.98166 20.2087 2.99742 20.7179 3.07441 22.4032C3.09008 23.401 3.27408 24.389 3.61867 25.3256C4.1536 26.7038 5.24633 27.7915 6.62689 28.3199C7.5616 28.6691 8.54986 28.8533 9.54767 28.8641C11.2416 28.9622 11.6879 28.9622 15.944 28.9622C20.2367 28.9622 20.6811 28.9412 22.3385 28.8641C23.3366 28.8521 24.3253 28.6679 25.2609 28.3199C26.6337 27.7868 27.7195 26.7017 28.2534 25.3292C28.6023 24.3828 28.7864 23.3837 28.7976 22.3751H28.817C28.8921 20.7022 28.8921 20.2559 28.8921 15.9806C28.8921 11.7055 28.8729 11.2556 28.7976 9.58445C28.782 8.58769 28.5979 7.60079 28.2534 6.66545C27.7208 5.29092 26.6347 4.20367 25.2609 3.66941C24.3255 3.32072 23.3367 3.13658 22.3385 3.12517C20.6462 3.02891 20.2034 3.02891 15.944 3.02891ZM16.0034 24.0919C12.7309 24.0941 9.77941 22.1245 8.52539 19.1018C7.27148 16.079 7.96196 12.5985 10.275 10.2834C12.5881 7.9685 16.068 7.27487 19.0918 8.52626C22.1155 9.77765 24.0878 12.7274 24.0884 16C24.0836 20.4642 20.4678 24.0833 16.0034 24.0919ZM16.0034 10.7464C13.1039 10.7464 10.7534 13.0969 10.7534 15.9964C10.7534 18.896 13.1039 21.2464 16.0034 21.2464C18.9029 21.2464 21.2534 18.896 21.2534 15.9964C21.2467 13.0997 18.9001 10.7531 16.0034 10.7464ZM24.4034 9.49867C23.3629 9.49478 22.522 8.64922 22.5239 7.60867C22.5259 6.56812 23.3699 5.7257 24.4104 5.7257C25.451 5.7257 26.295 6.56812 26.297 7.60867C26.2974 8.11067 26.0979 8.5922 25.7427 8.94689C25.3873 9.30148 24.9054 9.50003 24.4034 9.49867Z" fill="white"/>
</svg>
