<svg width="33" height="28" viewBox="0 0 33 28" fill="none" xmlns="http://www.w3.org/2000/svg">
<path fill-rule="evenodd" clip-rule="evenodd" d="M2.62446 11.7859C11.2613 7.92232 17.0206 5.37517 19.9023 4.14452C28.1301 0.630749 29.8397 0.02037 30.9541 0.000214898C31.1991 -0.00421799 31.7471 0.0581468 32.1021 0.353886C32.4018 0.603601 32.4842 0.940932 32.5237 1.17769C32.5632 1.41445 32.6123 1.95379 32.5733 2.37522C32.1274 7.1853 30.1982 18.8581 29.2167 24.2455C28.8013 26.5251 27.9837 27.2894 27.192 27.3642C25.4714 27.5268 24.1649 26.1968 22.4985 25.0752C19.891 23.3202 18.4179 22.2276 15.8868 20.5151C12.9617 18.5359 14.8579 17.4481 16.5249 15.6704C16.9612 15.2051 24.5418 8.12551 24.6885 7.48328C24.7069 7.40296 24.7239 7.10356 24.5506 6.94546C24.3774 6.78737 24.1217 6.84144 23.9372 6.88443C23.6757 6.94537 19.5101 9.77236 11.4403 15.3654C10.258 16.199 9.18698 16.6052 8.22742 16.584C7.16958 16.5604 5.13473 15.9699 3.62202 15.4649C1.76661 14.8457 0.291985 14.5183 0.420392 13.4667C0.487275 12.9188 1.22196 12.3586 2.62446 11.7859Z" fill="white"/>
</svg>
