<svg width="36" height="29" viewBox="0 0 36 29" fill="none" xmlns="http://www.w3.org/2000/svg">
<path d="M35.3049 3.44088C34.0208 4.0961 32.577 4.42399 31.1327 4.58765C32.577 3.60454 33.7002 2.29411 34.342 0.491555C32.8976 1.311 31.4533 1.96622 29.6883 2.29354C28.4042 0.818875 26.479 0 24.3928 0C20.3809 0 17.1716 3.27665 17.1716 7.37275C17.1716 8.02796 17.1716 8.51952 17.3319 9.01107C11.3941 8.68318 6.09863 5.73442 2.40784 1.31043C1.76609 2.4572 1.44493 3.60397 1.44493 5.07863C1.44493 7.70007 2.729 9.82994 4.65426 11.1409C3.53105 11.1409 2.40784 10.8131 1.44493 10.1578V10.3215C1.44493 13.926 3.85221 16.8754 7.22184 17.5306C6.58009 17.6942 5.93777 17.8585 5.29602 17.8585C4.81456 17.8585 4.3331 17.8585 4.01195 17.6948C4.97486 20.6441 7.54244 22.774 10.7518 22.774C8.34449 24.7402 5.13516 25.887 1.76496 25.887C1.12321 25.887 0.641754 25.887 0 25.7234C3.20933 27.8532 6.90068 29 11.0729 29C24.3923 29 31.6136 17.8591 31.6136 8.02853V7.04542C33.2188 6.22598 34.342 4.91555 35.3049 3.44088Z" fill="white"/>
</svg>
