<svg width="41" height="25" viewBox="0 0 41 25" fill="none" xmlns="http://www.w3.org/2000/svg">
<path fill-rule="evenodd" clip-rule="evenodd" d="M6.09158 0.0250244H1.6301C0.355097 0.0250244 0.100098 0.624785 0.100098 1.28778C0.100098 2.46894 1.61174 8.3319 7.14422 16.0839C10.8305 21.3797 16.0264 24.25 20.7531 24.25C23.5907 24.25 23.9416 23.6115 23.9416 22.516V18.5135C23.9416 17.2385 24.2109 16.9835 25.1085 16.9835C25.7715 16.9835 26.9037 17.314 29.5536 19.8661C32.5789 22.8934 33.0767 24.25 34.7781 24.25H39.2416C40.5166 24.25 41.1551 23.6115 40.7859 22.3528C40.384 21.1003 38.9397 19.2806 37.0221 17.1243C35.9817 15.8962 34.4231 14.5723 33.9498 13.9093C33.2868 13.0586 33.4765 12.6812 33.9498 11.9243C33.9498 11.9243 39.3864 4.26618 39.9535 1.66518C40.2391 0.720664 39.9535 0.0250244 38.6031 0.0250244H34.1416C33.0073 0.0250244 32.4831 0.624785 32.1995 1.28778C32.1995 1.28778 29.931 6.81822 26.716 10.4107C25.6756 11.4511 25.2023 11.7836 24.6352 11.7836C24.3516 11.7836 23.9416 11.4511 23.9416 10.5065V1.66518C23.9416 0.530944 23.6131 0.0250244 22.6666 0.0250244H15.6531C14.9452 0.0250244 14.5188 0.551344 14.5188 1.05114C14.5188 2.12622 16.1263 2.3751 16.2916 5.40042V11.9713C16.2916 13.4135 16.0325 13.6747 15.4633 13.6747C13.9517 13.6747 10.2715 8.1177 8.08874 1.76106C7.66034 0.524824 7.23194 0.0250244 6.09158 0.0250244Z" fill="white"/>
</svg>
